<svg width="32" height="32" viewBox="0 0 32 32" fill="none" xmlns="http://www.w3.org/2000/svg">
    <path d="M16 0.0643535C15.6757 0.0643535 15.3536 0.00960348 15.0341 0.0286035C6.64731 0.528041 0 7.48773 0 16C0 19.1848 0.9305 22.1522 2.53444 24.6453C5.38087 29.0695 12.1551 29.6435 17.8069 29.6435C26.6434 29.6435 31.3561 24.8365 31.3561 16C31.3561 7.16342 24.8366 0.0643535 16 0.0643535ZM16 20.6251C13.4456 20.6251 11.3749 18.5544 11.3749 16C11.3749 13.4456 13.4456 11.3749 16 11.3749C18.5544 11.3749 20.6251 13.4456 20.6251 16C20.6251 18.5544 18.5544 20.6251 16 20.6251Z" fill="#92BDA8"/>
    <path d="M16 0C15.6756 0 15.3538 0.0108125 15.0342 0.029875C23.4209 0.529312 30.0684 7.48781 30.0684 16C30.0684 20.0726 28.5467 23.7896 26.0409 26.6137C23.3094 29.6922 19.4084 30.6934 15.0342 30.9539C15.3539 30.9729 15.6757 30.9837 16.0001 30.9837C21.6518 30.9837 26.6192 29.0696 29.4656 24.6454C31.0695 22.1522 32 19.1848 32 16C32 7.16344 24.8366 0 16 0Z" fill="#7DA491"/>
    <path d="M20.6469 24.612C18.323 24.612 18.323 26.6969 15.9992 26.6969C13.6755 26.6969 13.6755 24.612 11.3517 24.612C9.02799 24.612 9.02798 26.6969 6.7043 26.6969C4.5523 26.6969 4.39192 24.91 2.53448 24.6457C5.21761 28.8161 9.78498 31.6592 15.0339 31.9718C15.3534 31.9908 15.6755 31.9361 15.9998 31.9361C18.5727 31.9361 20.68 31.0251 22.5495 30.2611C24.7867 29.3468 26.656 28.3867 28.2066 25.9766C26.5901 26.2066 27.5174 26.2587 26.0404 26.6139C25.82 26.6669 25.5742 26.6969 25.2949 26.6969C22.9709 26.6969 22.9709 24.612 20.6469 24.612Z" fill="#EFD3C5"/>
    <path d="M7.17394 9.91912H5.54275C5.47934 9.91912 5.41655 9.90663 5.35796 9.88236C5.29938 9.8581 5.24615 9.82253 5.20131 9.77769C5.15647 9.73285 5.1209 9.67962 5.09663 9.62103C5.07237 9.56245 5.05988 9.49966 5.05988 9.43624C5.05988 9.37283 5.07237 9.31004 5.09663 9.25146C5.1209 9.19287 5.15647 9.13964 5.20131 9.0948C5.24615 9.04996 5.29938 9.01439 5.35796 8.99013C5.41655 8.96586 5.47934 8.95337 5.54275 8.95337H7.17394C7.23735 8.95337 7.30014 8.96586 7.35873 8.99013C7.41731 9.01439 7.47054 9.04996 7.51538 9.0948C7.56022 9.13964 7.59579 9.19287 7.62006 9.25146C7.64432 9.31004 7.65681 9.37283 7.65681 9.43624C7.65681 9.49966 7.64432 9.56245 7.62006 9.62103C7.59579 9.67962 7.56022 9.73285 7.51538 9.77769C7.47054 9.82253 7.41731 9.8581 7.35873 9.88236C7.30014 9.90663 7.23735 9.91912 7.17394 9.91912Z" fill="#7D97A4"/>
    <path d="M23.6329 21.9853H22.0017C21.8737 21.9853 21.7508 21.9344 21.6603 21.8439C21.5697 21.7533 21.5189 21.6305 21.5189 21.5024C21.5189 21.3743 21.5697 21.2515 21.6603 21.161C21.7508 21.0704 21.8737 21.0195 22.0017 21.0195H23.6329C23.761 21.0195 23.8838 21.0704 23.9744 21.161C24.0649 21.2515 24.1158 21.3743 24.1158 21.5024C24.1158 21.6305 24.0649 21.7533 23.9744 21.8439C23.8838 21.9344 23.761 21.9853 23.6329 21.9853Z" fill="#FFF9E2"/>
    <path d="M14.7599 5.2993L15.9133 4.14592C16.0042 4.05696 16.1265 4.00744 16.2537 4.00812C16.3809 4.00881 16.5027 4.05963 16.5926 4.14957C16.6826 4.2395 16.7334 4.36128 16.7341 4.48847C16.7348 4.61565 16.6852 4.73797 16.5963 4.82886L15.4429 5.98224C15.3522 6.07208 15.2296 6.12235 15.1019 6.12205C14.9742 6.12175 14.8519 6.0709 14.7616 5.98062C14.6713 5.89034 14.6204 5.76798 14.6201 5.64031C14.6198 5.51263 14.6701 5.39002 14.7599 5.2993Z" fill="#7D97A4"/>
    <path d="M22.1429 9.67143L23.2963 8.51806C23.3872 8.42909 23.5095 8.37957 23.6367 8.38026C23.7639 8.38094 23.8857 8.43176 23.9756 8.5217C24.0655 8.61163 24.1163 8.73341 24.117 8.8606C24.1177 8.98778 24.0682 9.1101 23.9792 9.20099L22.8258 10.3544C22.7348 10.4428 22.6126 10.4918 22.4858 10.4909C22.3589 10.49 22.2375 10.4392 22.1478 10.3495C22.058 10.2597 22.0072 10.1383 22.0063 10.0114C22.0054 9.88456 22.0545 9.76242 22.1429 9.67143ZM6.26091 15.8195L7.41429 14.6661C7.50518 14.5771 7.6275 14.5276 7.75468 14.5283C7.88187 14.5289 8.00365 14.5798 8.09358 14.6697C8.18351 14.7596 8.23434 14.8814 8.23502 15.0086C8.23571 15.1358 8.18619 15.2581 8.09722 15.349L6.94379 16.5024C6.85271 16.5904 6.73071 16.639 6.60407 16.638C6.47744 16.6369 6.3563 16.5861 6.26675 16.4965C6.17721 16.407 6.12642 16.2858 6.12532 16.1592C6.12423 16.0326 6.17292 15.9106 6.26091 15.8195Z" fill="#FFF9E2"/>
    <path d="M25.947 17.4677L24.7936 16.3143C24.7046 16.2234 24.6551 16.1011 24.6558 15.9739C24.6565 15.8468 24.7073 15.725 24.7972 15.635C24.8872 15.5451 25.0089 15.4943 25.1361 15.4936C25.2633 15.4929 25.3856 15.5424 25.4765 15.6314L26.6299 16.7848C26.7189 16.8757 26.7684 16.998 26.7677 17.1252C26.767 17.2524 26.7162 17.3741 26.6263 17.4641C26.5363 17.554 26.4145 17.6048 26.2874 17.6055C26.1602 17.6062 26.0379 17.5567 25.947 17.4677ZM6.19377 22.4153L5.0404 21.2619C4.95143 21.171 4.90191 21.0487 4.90259 20.9215C4.90328 20.7943 4.9541 20.6725 5.04404 20.5826C5.13397 20.4927 5.25575 20.4418 5.38294 20.4412C5.51012 20.4405 5.63244 20.49 5.72333 20.579L6.87671 21.7323C6.96567 21.8232 7.01519 21.9455 7.01451 22.0727C7.01383 22.1999 6.963 22.3217 6.87307 22.4116C6.78313 22.5016 6.66135 22.5524 6.53417 22.5531C6.40698 22.5538 6.28466 22.5042 6.19377 22.4153Z" fill="#7D97A4"/>
    <path d="M29.4656 24.6458C27.8492 24.8758 27.5173 26.2581 26.0407 26.6134C23.3091 29.692 19.4087 31.7102 15.0345 31.9708C15.037 31.971 15.0398 31.9717 15.0424 31.972C15.3594 31.9907 15.6787 32.0007 16.0003 32.0007C21.652 32.0006 26.6192 29.0701 29.4656 24.6458Z" fill="#D4AB92"/>
</svg>
