<svg width="340" height="340" viewBox="0 0 340 340" fill="none" xmlns="http://www.w3.org/2000/svg">
    <g clip-path="url(#clip0_6370_2506)">
        <path fill-rule="evenodd" clip-rule="evenodd" d="M64.5026 52.8881C84.8105 39.3188 108.686 32.0762 133.11 32.0762C165.862 32.0762 197.272 45.0867 220.431 68.2457C243.59 91.4047 256.601 122.815 256.601 155.567C256.601 179.991 249.358 203.866 235.789 224.174C222.22 244.482 202.933 260.31 180.368 269.657C157.803 279.004 132.973 281.449 109.018 276.684C85.0636 271.92 63.0597 260.158 45.7892 242.888C28.5188 225.617 16.7574 203.613 11.9925 179.659C7.22761 155.704 9.67314 130.874 19.0198 108.309C28.3666 85.744 44.1946 66.4574 64.5026 52.8881ZM126.873 114.046C125.219 115.701 124.289 117.944 124.289 120.284V137.925C124.289 140.265 125.219 142.508 126.873 144.162C128.527 145.817 130.771 146.746 133.11 146.746C135.45 146.746 137.693 145.817 139.347 144.162C141.002 142.508 141.931 140.265 141.931 137.925V120.284C141.931 117.944 141.002 115.701 139.347 114.046C137.693 112.392 135.45 111.463 133.11 111.463C130.771 111.463 128.527 112.392 126.873 114.046ZM97.8272 164.387H115.469C117.808 164.387 120.052 163.458 121.706 161.804C123.36 160.15 124.289 157.906 124.289 155.567C124.289 153.227 123.36 150.984 121.706 149.33C120.052 147.675 117.808 146.746 115.469 146.746H97.8272C95.4878 146.746 93.2442 147.675 91.59 149.33C89.9358 150.984 89.0064 153.227 89.0064 155.567C89.0064 157.906 89.9358 160.15 91.59 161.804C93.2442 163.458 95.4878 164.387 97.8272 164.387ZM139.347 197.087C141.002 195.433 141.931 193.189 141.931 190.85V173.208C141.931 170.869 141.002 168.625 139.347 166.971C137.693 165.317 135.45 164.387 133.11 164.387C130.771 164.387 128.527 165.317 126.873 166.971C125.219 168.625 124.289 170.869 124.289 173.208V190.85C124.289 193.189 125.219 195.433 126.873 197.087C128.527 198.741 130.771 199.67 133.11 199.67C135.45 199.67 137.693 198.741 139.347 197.087ZM150.752 164.387H168.393C170.733 164.387 172.976 163.458 174.63 161.804C176.285 160.15 177.214 157.906 177.214 155.567C177.214 153.227 176.285 150.984 174.63 149.33C172.976 147.675 170.733 146.746 168.393 146.746H150.752C148.412 146.746 146.169 147.675 144.515 149.33C142.86 150.984 141.931 153.227 141.931 155.567C141.931 157.906 142.86 160.15 144.515 161.804C146.169 163.458 148.412 164.387 150.752 164.387Z" fill="url(#paint0_linear_6370_2506)"/>
        <path d="M371.559 320.23L265.264 212.995L271.203 205.256C291.519 178.809 302.231 147.073 302.231 113.61C302.231 29.9824 234.458 -38 151.143 -38C67.8286 -38 0 29.9824 0 113.61C0 197.238 67.7731 265.165 151.143 265.165C182.671 265.165 213.088 255.31 238.954 236.658L246.614 231.146L353.297 338.381C355.739 340.775 358.903 342 362.733 342C370.171 342 375 336.933 375 329.083C375 325.631 373.779 322.513 371.559 320.23ZM151.143 252.582C74.7114 252.582 12.5444 190.223 12.5444 113.61C12.5444 36.9978 74.7114 -25.4168 151.143 -25.4168C227.576 -25.4168 289.687 36.9421 289.687 113.61C289.687 190.278 227.52 252.582 151.143 252.582Z" fill="url(#paint1_linear_6370_2506)"/>
    </g>
    <defs>
        <linearGradient id="paint0_linear_6370_2506" x1="447.987" y1="-78.7237" x2="82.1249" y2="230.315" gradientUnits="userSpaceOnUse">
            <stop stop-color="#4D5F5D"/>
            <stop offset="1" stop-color="#262B28"/>
        </linearGradient>
        <linearGradient id="paint1_linear_6370_2506" x1="422.693" y1="-99.6354" x2="105.98" y2="264.392" gradientUnits="userSpaceOnUse">
            <stop stop-color="#4D5F5D"/>
            <stop offset="1" stop-color="#2C2F2D"/>
        </linearGradient>
        <clipPath id="clip0_6370_2506">
            <rect width="340" height="340" fill="white"/>
        </clipPath>
    </defs>
</svg>
